<svg xmlns="http://www.w3.org/2000/svg" viewBox="0 0 513 255" width="513" height="255"><path d="M87 0H426L513 87V168L426 255H87L0 168V87Z" fill="#080808"/><g transform="translate(57.1 170.7)"><path d="M101.15 0L73.95 0L66.47 -28.56L34 -28.56L26.69 0L0.85 0L32.98 -118.66L69.02 -118.66L101.15 0M62.56 -49.13L51 -94.01L49.64 -94.01L38.08 -49.13L62.56 -49.13 M140.59 0L114.92 0L114.92 -118.66L160.82 -118.66Q169.49 -118.66 176.29 -116.03Q183.09 -113.39 187.77 -108.46Q192.44 -103.53 194.82 -96.56Q197.2 -89.59 197.2 -80.92L197.2 -80.92Q197.2 -72.25 194.82 -65.28Q192.44 -58.31 187.77 -53.38Q183.09 -48.45 176.29 -45.82Q169.49 -43.18 160.82 -43.18L160.82 -43.18L140.59 -43.18L140.59 0M140.59 -98.09L140.59 -63.75L154.36 -63.75Q163.37 -63.75 166.86 -67.15Q170.34 -70.55 170.34 -78.37L170.34 -78.37L170.34 -83.47Q170.34 -91.29 166.86 -94.69Q163.37 -98.09 154.36 -98.09L154.36 -98.09L140.59 -98.09 M293.25 0L216.75 0L216.75 -18.87L242.25 -18.87L242.25 -99.79L216.75 -99.79L216.75 -118.66L293.25 -118.66L293.25 -99.79L267.75 -99.79L267.75 -18.87L293.25 -18.87L293.25 0" fill="#FFFFFF"/><path d="M397.8 32.64L316.2 32.64L316.2 12.07L397.8 12.07L397.8 32.64" fill="#FF5A00"/></g></svg>