<svg xmlns="http://www.w3.org/2000/svg" viewBox="0 0 1153 603" width="1153" height="603"><rect width="1153" height="603" fill="#080808"/><g transform="translate(407.5 70) scale(0.6588)"><path d="M87 0H426L513 87V168L426 255H87L0 168V87Z" fill="#FAFAF8"/><g transform="translate(57.1 170.7)"><path d="M101.15 0L73.95 0L66.47 -28.56L34 -28.56L26.69 0L0.85 0L32.98 -118.66L69.02 -118.66L101.15 0M62.56 -49.13L51 -94.01L49.64 -94.01L38.08 -49.13L62.56 -49.13 M140.59 0L114.92 0L114.92 -118.66L160.82 -118.66Q169.49 -118.66 176.29 -116.03Q183.09 -113.39 187.77 -108.46Q192.44 -103.53 194.82 -96.56Q197.2 -89.59 197.2 -80.92L197.2 -80.92Q197.2 -72.25 194.82 -65.28Q192.44 -58.31 187.77 -53.38Q183.09 -48.45 176.29 -45.82Q169.49 -43.18 160.82 -43.18L160.82 -43.18L140.59 -43.18L140.59 0M140.59 -98.09L140.59 -63.75L154.36 -63.75Q163.37 -63.75 166.86 -67.15Q170.34 -70.55 170.34 -78.37L170.34 -78.37L170.34 -83.47Q170.34 -91.29 166.86 -94.69Q163.37 -98.09 154.36 -98.09L154.36 -98.09L140.59 -98.09 M293.25 0L216.75 0L216.75 -18.87L242.25 -18.87L242.25 -99.79L216.75 -99.79L216.75 -118.66L293.25 -118.66L293.25 -99.79L267.75 -99.79L267.75 -18.87L293.25 -18.87L293.25 0" fill="#080808"/><path d="M397.8 32.64L316.2 32.64L316.2 12.07L397.8 12.07L397.8 32.64" fill="#FF5A00"/></g></g><g transform="translate(60.4 430.7)"><path d="M108.68 0L92.53 0Q83.79 0 78.47 -4.46Q73.15 -8.93 72.2 -17.29L72.2 -17.29L71.25 -17.29Q68.59 -7.6 60.7 -2.66Q52.82 2.28 41.42 2.28L41.42 2.28Q27.17 2.28 18.52 -5.42Q9.88 -13.11 9.88 -26.98L9.88 -26.98Q9.88 -42.37 21.09 -49.78Q32.3 -57.19 53.96 -57.19L53.96 -57.19L69.73 -57.19L69.73 -62.13Q69.73 -70.87 65.64 -75.34Q61.56 -79.8 51.87 -79.8L51.87 -79.8Q42.94 -79.8 37.43 -76.38Q31.92 -72.96 27.93 -67.45L27.93 -67.45L12.54 -81.13Q17.48 -89.49 28.02 -94.91Q38.57 -100.32 55.1 -100.32L55.1 -100.32Q75.24 -100.32 86.55 -91.11Q97.85 -81.89 97.85 -63.27L97.85 -63.27L97.85 -20.33L108.68 -20.33L108.68 0M52.06 -16.15L52.06 -16.15Q59.47 -16.15 64.6 -19.76Q69.73 -23.37 69.73 -30.21L69.73 -30.21L69.73 -41.99L54.72 -41.99Q37.43 -41.99 37.43 -30.4L37.43 -30.4L37.43 -26.6Q37.43 -21.47 41.42 -18.81Q45.41 -16.15 52.06 -16.15 M125.21 38L125.21 -98.04L153.33 -98.04L153.33 -80.18L154.66 -80.18Q158.27 -88.92 165.11 -94.62Q171.95 -100.32 183.73 -100.32L183.73 -100.32Q191.9 -100.32 198.64 -97.28Q205.39 -94.24 210.24 -87.97Q215.08 -81.7 217.84 -72.01Q220.59 -62.32 220.59 -49.02L220.59 -49.02Q220.59 -35.72 217.84 -26.03Q215.08 -16.34 210.24 -10.07Q205.39 -3.8 198.64 -0.76Q191.9 2.28 183.73 2.28L183.73 2.28Q171.95 2.28 165.11 -3.33Q158.27 -8.93 154.66 -17.86L154.66 -17.86L153.33 -17.86L153.33 38L125.21 38M171.57 -19.57L171.57 -19.57Q181.07 -19.57 186.2 -25.37Q191.33 -31.16 191.33 -41.42L191.33 -41.42L191.33 -56.62Q191.33 -66.88 186.2 -72.67Q181.07 -78.47 171.57 -78.47L171.57 -78.47Q164.16 -78.47 158.75 -74.86Q153.33 -71.25 153.33 -63.46L153.33 -63.46L153.33 -34.58Q153.33 -26.79 158.75 -23.18Q164.16 -19.57 171.57 -19.57 M291.08 -110.58L291.08 -110.58Q281.58 -110.58 277.88 -114.47Q274.17 -118.37 274.17 -123.88L274.17 -123.88L274.17 -129.39Q274.17 -135.09 277.88 -138.89Q281.58 -142.69 291.08 -142.69L291.08 -142.69Q300.58 -142.69 304.28 -138.89Q307.99 -135.09 307.99 -129.39L307.99 -129.39L307.99 -123.88Q307.99 -118.37 304.28 -114.47Q300.58 -110.58 291.08 -110.58M245.86 0L245.86 -21.85L277.02 -21.85L277.02 -76.19L245.86 -76.19L245.86 -98.04L305.14 -98.04L305.14 -21.85L334.02 -21.85L334.02 0L245.86 0 M355.49 0L355.49 -21.85L384.37 -21.85L384.37 -76.19L353.59 -76.19L353.59 -98.04L384.37 -98.04L384.37 -112.29Q384.37 -124.83 391.69 -132.72Q399 -140.6 414.39 -140.6L414.39 -140.6L447.64 -140.6L447.64 -118.75L412.49 -118.75L412.49 -98.04L447.64 -98.04L447.64 -76.19L412.49 -76.19L412.49 -21.85L443.27 -21.85L443.27 0L355.49 0 M470.06 0L470.06 -21.85L492.67 -21.85L492.67 -76.19L470.06 -76.19L470.06 -98.04L520.79 -98.04L520.79 -70.3L522.12 -70.3Q523.45 -75.62 525.83 -80.66Q528.2 -85.69 531.9 -89.59Q535.61 -93.48 540.93 -95.76Q546.25 -98.04 553.47 -98.04L553.47 -98.04L562.78 -98.04L562.78 -72.2L541.88 -72.2Q531.43 -72.2 526.11 -66.03Q520.79 -59.85 520.79 -50.92L520.79 -50.92L520.79 -21.85L553.09 -21.85L553.09 0L470.06 0 M629.66 2.28L629.66 2.28Q604.96 2.28 592.23 -11.4Q579.5 -25.08 579.5 -48.64L579.5 -48.64Q579.5 -60.61 582.83 -70.2Q586.15 -79.8 592.33 -86.55Q598.5 -93.29 607.34 -96.81Q616.17 -100.32 627.19 -100.32L627.19 -100.32Q638.21 -100.32 646.95 -96.81Q655.69 -93.29 661.77 -86.83Q667.85 -80.37 671.17 -71.16Q674.5 -61.94 674.5 -50.54L674.5 -50.54L674.5 -42.18L607.43 -42.18L607.43 -40.47Q607.43 -30.97 613.32 -25.18Q619.21 -19.38 630.61 -19.38L630.61 -19.38Q639.35 -19.38 645.62 -22.71Q651.89 -26.03 656.45 -31.54L656.45 -31.54L671.65 -15.01Q665.95 -7.98 655.69 -2.85Q645.43 2.28 629.66 2.28M627.38 -80.18L627.38 -80.18Q618.26 -80.18 612.85 -74.58Q607.43 -68.97 607.43 -59.47L607.43 -59.47L607.43 -57.95L646.95 -57.95L646.95 -59.47Q646.95 -69.16 641.73 -74.67Q636.5 -80.18 627.38 -80.18 M743.66 2.28L743.66 2.28Q718.96 2.28 706.23 -11.4Q693.5 -25.08 693.5 -48.64L693.5 -48.64Q693.5 -60.61 696.83 -70.2Q700.15 -79.8 706.33 -86.55Q712.5 -93.29 721.34 -96.81Q730.17 -100.32 741.19 -100.32L741.19 -100.32Q752.21 -100.32 760.95 -96.81Q769.69 -93.29 775.77 -86.83Q781.85 -80.37 785.17 -71.16Q788.5 -61.94 788.5 -50.54L788.5 -50.54L788.5 -42.18L721.43 -42.18L721.43 -40.47Q721.43 -30.97 727.32 -25.18Q733.21 -19.38 744.61 -19.38L744.61 -19.38Q753.35 -19.38 759.62 -22.71Q765.89 -26.03 770.45 -31.54L770.45 -31.54L785.65 -15.01Q779.95 -7.98 769.69 -2.85Q759.43 2.28 743.66 2.28M741.38 -80.18L741.38 -80.18Q732.26 -80.18 726.85 -74.58Q721.43 -68.97 721.43 -59.47L721.43 -59.47L721.43 -57.95L760.95 -57.95L760.95 -59.47Q760.95 -69.16 755.73 -74.67Q750.5 -80.18 741.38 -80.18 M810.92 0L810.92 -21.85L840.94 -21.85L840.94 -118.75L810.92 -118.75L810.92 -140.6L869.06 -140.6L869.06 -21.85L899.08 -21.85L899.08 0L810.92 0 M979.07 -56.81L993.7 -98.04L1022.39 -98.04L976.22 15.77Q971.85 26.6 964.63 32.3Q957.41 38 944.87 38L944.87 38L925.49 38L925.49 16.15L949.05 16.15L955.13 -0.57L915.61 -98.04L945.82 -98.04L960.07 -56.81L969 -28.31L970.52 -28.31L979.07 -56.81" fill="#FAFAF8"/></g><g transform="translate(150.2 532.2)"><path d="M8.7 0L4.5 0L4.5 -34.9L26.5 -34.9L26.5 -31.25L8.7 -31.25L8.7 -19.5L25 -19.5L25 -15.85L8.7 -15.85L8.7 0 M47.7 -14.9L47.7 0L43.5 0L43.5 -34.9L56.2 -34.9Q61.05 -34.9 63.6 -32.25Q66.15 -29.6 66.15 -24.85L66.15 -24.85Q66.15 -20.6 63.95 -18.05Q61.75 -15.5 57.55 -15.1L57.55 -15.1L66.45 0L61.75 0L53.25 -14.9L47.7 -14.9M47.7 -18.45L56.1 -18.45Q58.75 -18.45 60.23 -19.78Q61.7 -21.1 61.7 -23.55L61.7 -23.55L61.7 -26.15Q61.7 -28.6 60.23 -29.93Q58.75 -31.25 56.1 -31.25L56.1 -31.25L47.7 -31.25L47.7 -18.45 M104 0L82.5 0L82.5 -34.9L104 -34.9L104 -31.25L86.7 -31.25L86.7 -19.5L103.4 -19.5L103.4 -15.85L86.7 -15.85L86.7 -3.65L104 -3.65L104 0 M143 0L121.5 0L121.5 -34.9L143 -34.9L143 -31.25L125.7 -31.25L125.7 -19.5L142.4 -19.5L142.4 -15.85L125.7 -15.85L125.7 -3.65L143 -3.65L143 0 M221.75 0L201 0L201 -34.9L205.2 -34.9L205.2 -3.65L221.75 -3.65L221.75 0 M260.75 0L240 0L240 -34.9L244.2 -34.9L244.2 -3.65L260.75 -3.65L260.75 0 M295.75 0L295.75 -17.5L295.75 -28.55L295.35 -28.55L288 -10.6L280.65 -28.55L280.25 -28.55L280.25 -17.5L280.25 0L276.4 0L276.4 -34.9L281.8 -34.9L287.95 -19.5L288.25 -19.5L294.4 -34.9L299.6 -34.9L299.6 0L295.75 0 M379.5 0L375.05 0L372.1 -9.95L359.85 -9.95L356.9 0L352.55 0L363.25 -34.9L368.8 -34.9L379.5 0M371.1 -13.6L366.2 -30.45L365.75 -30.45L360.85 -13.6L371.1 -13.6 M398.7 0L394.5 0L394.5 -34.9L407.2 -34.9Q412.05 -34.9 414.6 -32.25Q417.15 -29.6 417.15 -24.85L417.15 -24.85Q417.15 -20.1 414.6 -17.45Q412.05 -14.8 407.2 -14.8L407.2 -14.8L398.7 -14.8L398.7 0M398.7 -31.25L398.7 -18.45L407.1 -18.45Q409.75 -18.45 411.23 -19.78Q412.7 -21.1 412.7 -23.55L412.7 -23.55L412.7 -26.15Q412.7 -28.6 411.23 -29.93Q409.75 -31.25 407.1 -31.25L407.1 -31.25L398.7 -31.25 M454.8 0L433.2 0L433.2 -3.35L441.9 -3.35L441.9 -31.55L433.2 -31.55L433.2 -34.9L454.8 -34.9L454.8 -31.55L446.1 -31.55L446.1 -3.35L454.8 -3.35L454.8 0 M511.75 0L511.75 -34.9L521.5 -34.9Q527.9 -34.9 531.05 -30.5Q534.2 -26.1 534.2 -17.45L534.2 -17.45Q534.2 -8.8 531.05 -4.4Q527.9 0 521.5 0L521.5 0L511.75 0M515.95 -3.65L521.3 -3.65Q525.5 -3.65 527.63 -6.55Q529.75 -9.45 529.75 -14.75L529.75 -14.75L529.75 -20.15Q529.75 -25.45 527.63 -28.35Q525.5 -31.25 521.3 -31.25L521.3 -31.25L515.95 -31.25L515.95 -3.65 M571.8 0L550.2 0L550.2 -3.35L558.9 -3.35L558.9 -31.55L550.2 -31.55L550.2 -34.9L571.8 -34.9L571.8 -31.55L563.1 -31.55L563.1 -3.35L571.8 -3.35L571.8 0 M593.7 -14.9L593.7 0L589.5 0L589.5 -34.9L602.2 -34.9Q607.05 -34.9 609.6 -32.25Q612.15 -29.6 612.15 -24.85L612.15 -24.85Q612.15 -20.6 609.95 -18.05Q607.75 -15.5 603.55 -15.1L603.55 -15.1L612.45 0L607.75 0L599.25 -14.9L593.7 -14.9M593.7 -18.45L602.1 -18.45Q604.75 -18.45 606.23 -19.78Q607.7 -21.1 607.7 -23.55L607.7 -23.55L607.7 -26.15Q607.7 -28.6 606.23 -29.93Q604.75 -31.25 602.1 -31.25L602.1 -31.25L593.7 -31.25L593.7 -18.45 M650 0L628.5 0L628.5 -34.9L650 -34.9L650 -31.25L632.7 -31.25L632.7 -19.5L649.4 -19.5L649.4 -15.85L632.7 -15.85L632.7 -3.65L650 -3.65L650 0 M679.15 0.6L679.15 0.6Q672.75 0.6 669.63 -4.05Q666.5 -8.7 666.5 -17.45L666.5 -17.45Q666.5 -26.2 669.63 -30.85Q672.75 -35.5 679.15 -35.5L679.15 -35.5Q681.55 -35.5 683.3 -34.85Q685.05 -34.2 686.3 -33.1Q687.55 -32 688.4 -30.63Q689.25 -29.25 689.9 -27.85L689.9 -27.85L686.3 -26.2Q685.85 -27.35 685.25 -28.38Q684.65 -29.4 683.83 -30.18Q683 -30.95 681.88 -31.4Q680.75 -31.85 679.15 -31.85L679.15 -31.85Q675 -31.85 672.98 -28.7Q670.95 -25.55 670.95 -20.3L670.95 -20.3L670.95 -14.6Q670.95 -9.35 672.98 -6.2Q675 -3.05 679.15 -3.05L679.15 -3.05Q680.75 -3.05 681.88 -3.5Q683 -3.95 683.83 -4.73Q684.65 -5.5 685.25 -6.53Q685.85 -7.55 686.3 -8.7L686.3 -8.7L689.9 -7.05Q689.25 -5.6 688.4 -4.25Q687.55 -2.9 686.3 -1.8Q685.05 -0.7 683.3 -0.05Q681.55 0.6 679.15 0.6 M730.75 -31.25L719.1 -31.25L719.1 0L714.9 0L714.9 -31.25L703.25 -31.25L703.25 -34.9L730.75 -34.9L730.75 -31.25 M756 0.6L756 0.6Q752.8 0.6 750.5 -0.63Q748.2 -1.85 746.7 -4.15Q745.2 -6.45 744.5 -9.8Q743.8 -13.15 743.8 -17.45L743.8 -17.45Q743.8 -21.7 744.5 -25.08Q745.2 -28.45 746.7 -30.75Q748.2 -33.05 750.5 -34.27Q752.8 -35.5 756 -35.5L756 -35.5Q759.2 -35.5 761.5 -34.27Q763.8 -33.05 765.3 -30.75Q766.8 -28.45 767.5 -25.08Q768.2 -21.7 768.2 -17.45L768.2 -17.45Q768.2 -13.15 767.5 -9.8Q766.8 -6.45 765.3 -4.15Q763.8 -1.85 761.5 -0.63Q759.2 0.6 756 0.6M756 -3.05L756 -3.05Q758.1 -3.05 759.55 -3.88Q761 -4.7 761.95 -6.2Q762.9 -7.7 763.33 -9.83Q763.75 -11.95 763.75 -14.6L763.75 -14.6L763.75 -20.3Q763.75 -22.9 763.33 -25.05Q762.9 -27.2 761.95 -28.7Q761 -30.2 759.55 -31.03Q758.1 -31.85 756 -31.85L756 -31.85Q753.9 -31.85 752.45 -31.03Q751 -30.2 750.05 -28.7Q749.1 -27.2 748.67 -25.05Q748.25 -22.9 748.25 -20.3L748.25 -20.3L748.25 -14.6Q748.25 -11.95 748.67 -9.83Q749.1 -7.7 750.05 -6.2Q751 -4.7 752.45 -3.88Q753.9 -3.05 756 -3.05 M788.7 -14.9L788.7 0L784.5 0L784.5 -34.9L797.2 -34.9Q802.05 -34.9 804.6 -32.25Q807.15 -29.6 807.15 -24.85L807.15 -24.85Q807.15 -20.6 804.95 -18.05Q802.75 -15.5 798.55 -15.1L798.55 -15.1L807.45 0L802.75 0L794.25 -14.9L788.7 -14.9M788.7 -18.45L797.1 -18.45Q799.75 -18.45 801.23 -19.78Q802.7 -21.1 802.7 -23.55L802.7 -23.55L802.7 -26.15Q802.7 -28.6 801.23 -29.93Q799.75 -31.25 797.1 -31.25L797.1 -31.25L788.7 -31.25L788.7 -18.45 M836.1 0L831.9 0L831.9 -13.7L819.85 -34.9L824.65 -34.9L829.65 -25.8L833.9 -17.85L834.1 -17.85L838.45 -25.8L843.45 -34.9L848.15 -34.9L836.1 -13.7L836.1 0" fill="#9A9A93"/></g></svg>